<svg id="Calque_1" data-name="Calque 1" xmlns="http://www.w3.org/2000/svg" xmlns:xlink="http://www.w3.org/1999/xlink" viewBox="0 0 378.89 117.6"><defs><style>.cls-1{fill:#161f37;}.cls-2{fill:url(#Dégradé_sans_nom_55);}.cls-3{fill:url(#Dégradé_sans_nom_55-2);}</style><linearGradient id="Dégradé_sans_nom_55" x1="431.09" y1="282.29" x2="458.78" y2="234.33" gradientUnits="userSpaceOnUse"><stop offset="0" stop-color="#f9db6e"/><stop offset="0.2" stop-color="#f6bb4d"/><stop offset="0.4" stop-color="#f5a132"/><stop offset="0.61" stop-color="#eb8a1a"/><stop offset="0.81" stop-color="#e28019"/><stop offset="0.99" stop-color="#b56516"/></linearGradient><linearGradient id="Dégradé_sans_nom_55-2" x1="389.66" y1="313.1" x2="417.35" y2="265.15" xlink:href="#Dégradé_sans_nom_55"/></defs><title>Logo Bleu sans Baseline</title><path class="cls-1" d="M372.24,289.4c0,16.94-12.28,30-27.17,30-7.62,0-13.19-2.61-16.94-6.93v5.34H311.08V238.25h17.05v28.08c3.75-4.32,9.32-6.94,16.94-6.94C360,259.39,372.24,272.46,372.24,289.4Zm-17.05,0c0-8.52-5.69-13.87-13.53-13.87s-13.53,5.35-13.53,13.87,5.68,13.87,13.53,13.87S355.19,297.93,355.19,289.4Z" transform="translate(-93.75 -225.08)"/><path class="cls-1" d="M152.74,302.91a14,14,0,0,0,10.3-4.08l12.88,7.41c-5.26,7.3-13.2,11.05-23.4,11.05-18.35,0-29.73-12.34-29.73-28.33s11.6-28.34,28.55-28.34c15.67,0,27.27,12.13,27.27,28.34a31.18,31.18,0,0,1-.65,6.44h-38.1C141.9,301,146.84,302.91,152.74,302.91Zm9.87-19.54c-1.71-6.22-6.54-8.48-11.37-8.48-6.12,0-10.2,3-11.7,8.48Z" transform="translate(-93.75 -225.08)"/><path class="cls-1" d="M243.26,260.62v54.89c0,19.1-14.9,27.17-30,27.17-11.83,0-21.72-4.43-26.95-13.75l14.55-8.42c2.16,4,5.46,7.16,13,7.16,8,0,12.85-4.09,12.85-12.16v-5.23c-3.75,4.66-9.21,7.39-16.6,7.39-16.14,0-28-13.19-28-28.87s11.82-28.88,28-28.88c7.39,0,12.85,2.73,16.6,7.39v-6.69Zm-16.6,28.18c0-7.85-5.68-13.19-13.76-13.19S199.15,281,199.15,288.8,204.83,302,212.9,302,226.66,296.64,226.66,288.8Z" transform="translate(-93.75 -225.08)"/><path class="cls-1" d="M307.5,314.81a18.21,18.21,0,0,1-5.56,2.29,26.85,26.85,0,0,1-6.33.76,28,28,0,0,1-9.38-1.36,13.42,13.42,0,0,1-6.11-4.2,17.79,17.79,0,0,1-3.33-7.2,44.85,44.85,0,0,1-1-10.26v-27.6h-8.29v-7.09a29.35,29.35,0,0,0,12.38-9.39q4.76-6.21,6.5-16.14h5.12v18.43h15.93v14.19H291.46v28.69a10.9,10.9,0,0,0,.6,3.93,6.08,6.08,0,0,0,1.59,2.4,5.39,5.39,0,0,0,2.23,1.2,10.52,10.52,0,0,0,2.68.33,18.83,18.83,0,0,0,4.47-.66A11.13,11.13,0,0,0,307.5,301Z" transform="translate(-93.75 -225.08)"/><rect class="cls-1" x="153.08" y="35.69" width="17.05" height="56.84"/><circle class="cls-1" cx="161.61" cy="21.69" r="8.53"/><path class="cls-2" d="M455.15,267.34a10.71,10.71,0,0,1-9.87,5.41c-10.22,0-11.49-9.85-11.49-9.85h38.85V246.19a6.66,6.66,0,0,0-3.33-5.77L462,236.17l0,0-13.75-7.94a6.66,6.66,0,0,0-6.66,0l-7.34,4.23.09-.07-13.76,7.94a6.66,6.66,0,0,0-3.33,5.77v24.33a6.65,6.65,0,0,0,3.33,5.76l7.32,4.23h0l13.75,7.94a6.66,6.66,0,0,0,6.66,0l7.25-4.19,13.76-7.94a6.66,6.66,0,0,0,3.33-5.77v-3.14Zm-9.94-23.73a11.78,11.78,0,0,1,11.33,8.57H433.88A11.78,11.78,0,0,1,445.21,243.61Z" transform="translate(-93.75 -225.08)"/><path class="cls-3" d="M413.72,298.16a10.73,10.73,0,0,1-9.87,5.4c-10.22,0-11.48-9.85-11.48-9.85h38.84V277a6.66,6.66,0,0,0-3.33-5.77L420.52,267h0l-13.75-7.94a6.66,6.66,0,0,0-6.66,0l-7.34,4.24.09-.08-13.76,7.94a6.66,6.66,0,0,0-3.33,5.77v24.33a6.66,6.66,0,0,0,3.33,5.77l7.32,4.22h0l13.75,7.94a6.68,6.68,0,0,0,6.67,0l7.25-4.19,13.75-7.94a6.66,6.66,0,0,0,3.33-5.77v-3.13Zm-9.94-23.74A11.78,11.78,0,0,1,415.11,283H392.45A11.79,11.79,0,0,1,403.78,274.42Z" transform="translate(-93.75 -225.08)"/><path class="cls-1" d="M118.78,303a14.37,14.37,0,0,1-2.23.2,10.44,10.44,0,0,1-2.67-.33,5.43,5.43,0,0,1-2.24-1.2,6.17,6.17,0,0,1-1.58-2.4,10.9,10.9,0,0,1-.6-3.93v-70.3H93.75v69.21a44.29,44.29,0,0,0,1,10.26,17.91,17.91,0,0,0,3.32,7.2,13.53,13.53,0,0,0,6.11,4.2,28.15,28.15,0,0,0,9.39,1.36,27.36,27.36,0,0,0,6.32-.76,18.09,18.09,0,0,0,5.49-2.25A26.49,26.49,0,0,1,118.78,303Z" transform="translate(-93.75 -225.08)"/></svg>